#!OML:ASF H:\Punching\Project 1\Capture day 1\Session 1\female.ASF
:FULLY-SPECIFIED
:DEGREES
1845
root 2.40118 14.686 -0.924742 11.3336 -0.862586 -3.12485
lowerback -0.0784629 4.96458 0.640626
upperback -6.28675 6.6431 -1.00339
thorax -6.29358 3.24103 -1.74704
lowerneck -9.10077 -0.781153 10.6962
upperneck 37.4996 -5.54764 5.20954
head 14.5242 -0.108621 -0.501295
rclavicle -1.25483e-014 -7.15625e-015
rhumerus 32.1854 5.77144 -72.8256
rradius 80.2854
rwrist -36.1295
rhand -19.732 -27.301
rfingers 7.12502
rthumb 6.59855 -57.1782
lclavicle -1.25483e-014 -7.15625e-015
lhumerus 21.3662 -44.4414 80.3206
lradius 134.778
lwrist 17.4579
lhand -21.7436 13.5847
lfingers 7.12502
lthumb 4.65639 43.5135
rfemur 14.5509 -11.1307 7.9742
rtibia 2.8625e-014
rfoot -13.5964 -21.5322
rtoes -10.2605
lfemur -45.3409 0.0834539 -4.60745
ltibia 43.7497
lfoot -5.9111 12.8734
ltoes -4.52026
1846
root 2.41429 14.7039 -0.934361 11.409 -3.03122 -3.32918
lowerback -0.0290618 4.78237 0.389057
upperback -6.24927 6.38987 -0.933923
thorax -6.32424 3.12861 -1.5291
lowerneck -8.88994 -0.0187741 11.459
upperneck 37.559 -4.44195 4.76224
head 14.5154 0.397593 -0.660635
rclavicle -1.49089e-016 -3.18055e-015
rhumerus 30.4113 7.50224 -73.4588
rradius 85.6951
rwrist -38.3772
rhand -19.3205 -27.6488
rfingers 7.12502
rthumb 6.99581 -57.5132
lclavicle -1.49089e-016 -3.18055e-015
lhumerus 21.346 -43.8615 80.0762
lradius 135.113
lwrist 17.8595
lhand -21.9531 13.724
lfingers 7.12502
lthumb 4.45406 43.6571
rfemur 13.5856 -8.98996 8.02926
rtibia 1.90833e-014
rfoot -13.1003 -21.8271
rtoes -11.3704
lfemur -44.496 0.89885 -4.22566
ltibia 43.7553
lfoot -6.33105 13.9744
ltoes -4.01667
1847
root 2.43068 14.7211 -0.941563 11.4773 -5.27643 -3.56021
lowerback 0.0415182 4.61072 0.193
upperback -6.23243 6.1516 -0.88605
thorax -6.37795 3.01973 -1.36659
lowerneck -8.61258 0.743405 12.2757
upperneck 37.6215 -3.33111 4.30153
head 14.5132 0.911535 -0.833899
rclavicle -2.40902e-014 -9.54166e-015
rhumerus 28.4969 9.1199 -74.1496
rradius 90.8278
rwrist -39.9513
rhand -18.8028 -27.7852
rfingers 7.12502
rthumb 7.49551 -57.6324
lclavicle -2.40902e-014 -9.54166e-015
lhumerus 21.2663 -43.2996 79.834
lradius 135.459
lwrist 18.2187
lhand -22.1369 13.7485
lfingers 7.12502
lthumb 4.27653 43.6853
rfemur 12.6246 -6.75913 8.03613
rtibia 6.04305e-014
rfoot -12.5586 -22.0649
rtoes -12.5284
lfemur -43.5873 1.7839 -3.85491
ltibia 43.7979
lfoot -6.81483 15.0488
ltoes -3.49979
1848
root 2.44993 14.7374 -0.946063 11.5338 -7.55921 -3.79859
lowerback 0.1348 4.4377 0.0327849
upperback -6.22905 5.91129 -0.861419
thorax -6.4511 2.90706 -1.24927
lowerneck -8.27451 1.50209 13.1313
upperneck 37.687 -2.22306 3.84793
head 14.5207 1.43076 -1.01114
rclavicle 3.59676e-014 3.97569e-016
rhumerus 26.4729 10.6587 -74.8476
rradius 95.6733
rwrist -40.9726
rhand -18.3168 -27.7019
rfingers 7.12502
rthumb 7.96456 -57.5318
lclavicle 3.59676e-014 3.97569e-016
lhumerus 21.1472 -42.7183 79.5835
lradius 135.798
lwrist 18.494
lhand -22.2545 13.5905
lfingers 7.12502
lthumb 4.16301 43.5296
rfemur 11.6861 -4.47956 7.97996
rtibia -6.36111e-015
rfoot -11.9884 -22.2505
rtoes -13.6983
lfemur -42.624 2.71809 -3.51778
ltibia 43.8691
lfoot -7.34877 16.0883
ltoes -2.97486
1849
root 2.47141 14.7523 -0.947628 11.5609 -9.8508 -4.01494
lowerback 0.256445 4.24817 -0.138998
upperback -6.21494 5.64722 -0.849253
thorax -6.52785 2.7829 -1.13785
lowerneck -7.92422 2.26613 14.012
upperneck 37.765 -1.10683 3.39248
head 14.5543 1.95825 -1.19171
rclavicle 2.44505e-014 7.95139e-015
rhumerus 24.4223 12.1241 -75.5117
rradius 100.199
rwrist -41.5637
rhand -17.7641 -27.4167
rfingers 7.12502
rthumb 8.49803 -57.2257
lclavicle 2.44505e-014 7.95139e-015
lhumerus 21.0413 -42.0892 79.289
lradius 136.147
lwrist 18.6648
lhand -22.3439 13.3805
lfingers 7.12502
lthumb 4.07666 43.3212
rfemur 10.7937 -2.1832 7.83762
rtibia -2.22639e-014
rfoot -11.4088 -22.393
rtoes -14.8485
lfemur -41.5973 3.67259 -3.24157
ltibia 43.9554
lfoot -7.93061 17.0958
ltoes -2.43803
1850
root 2.49385 14.7651 -0.947079 11.5481 -12.1079 -4.18517
lowerback 0.422144 4.04143 -0.339898
upperback -6.19277 5.35671 -0.86464
thorax -6.62014 2.64634 -1.03917
lowerneck -7.56274 3.01852 14.9047
upperneck 37.8343 -0.0108524 2.96028
head 14.6027 2.48181 -1.36653
rclavicle -3.43028e-014 1.35174e-014
rhumerus 22.3733 13.4881 -76.1169
rradius 104.421
rwrist -41.8758
rhand -17.1719 -27.0504
rfingers 7.12502
rthumb 9.06948 -56.8354
lclavicle -3.43028e-014 1.35174e-014
lhumerus 20.9622 -41.4855 78.9267
lradius 136.544
lwrist 18.735
lhand -22.4568 13.2113
lfingers 7.12502
lthumb 3.96771 43.1541
rfemur 9.96288 0.0827792 7.60192
rtibia -1.59028e-014
rfoot -10.8472 -22.5029
rtoes -15.9278
lfemur -40.5256 4.61988 -3.04411
ltibia 44.0434
lfoot -8.53694 18.0666
ltoes -1.90619
1851
root 2.51609 14.7755 -0.945279 11.4786 -14.2843 -4.27954
lowerback 0.648744 3.81103 -0.609405
upperback -6.16069 5.02887 -0.906639
thorax -6.73931 2.49418 -0.93039
lowerneck -7.2032 3.74961 15.792
upperneck 37.8855 1.05289 2.55261
head 14.6618 2.99358 -1.53322
rclavicle -3.19298e-015 -1.19271e-014
rhumerus 20.362 14.7301 -76.6497
rradius 108.304
rwrist -41.968
rhand -16.5059 -26.6711
rfingers 7.12502
rthumb 9.71209 -56.4272
lclavicle -3.19298e-015 -1.19271e-014
lhumerus 20.9069 -40.8668 78.5328
lradius 136.953
lwrist 18.7179
lhand -22.5253 13.0119
lfingers 7.12502
lthumb 3.90156 42.956
rfemur 9.21341 2.26855 7.26322
rtibia 4.13472e-014
rfoot -10.3298 -22.5891
rtoes -16.8895
lfemur -39.4287 5.51182 -2.94406
ltibia 44.1231
lfoot -9.14658 19.0098
ltoes -1.4077
1852
root 2.53735 14.7833 -0.943794 11.3623 -16.3262 -4.30105
lowerback 0.926914 3.55288 -0.944826
upperback -6.11778 4.65745 -0.972479
thorax -6.87814 2.3236 -0.807685
lowerneck -6.85419 4.45073 16.6647
upperneck 37.8937 2.07348 2.17033
head 14.7178 3.48626 -1.69114
rclavicle 6.91274e-014 7.15625e-015
rhumerus 18.4458 15.8356 -77.0966
rradius 111.841
rwrist -41.9029
rhand -15.8186 -26.3937
rfingers 7.12502
rthumb 10.3752 -56.1178
lclavicle 6.91274e-014 7.15625e-015
lhumerus 20.8939 -40.2737 78.0953
lradius 137.394
lwrist 18.6465
lhand -22.6105 12.8932
lfingers 7.12502
lthumb 3.81921 42.8387
rfemur 8.53984 4.31952 6.84895
rtibia 1.90833e-014
rfoot -9.87225 -22.6588
rtoes -17.698
lfemur -38.3619 6.30781 -2.92494
ltibia 44.1956
lfoot -9.73544 19.9266
ltoes -0.929599
1853
root 2.55752 14.7885 -0.943406 11.2194 -18.1632 -4.27286
lowerback 1.24343 3.25439 -1.31314
upperback -6.07175 4.2269 -1.04848
thorax -7.03458 2.12582 -0.671996
lowerneck -6.50547 5.11606 17.5121
upperneck 37.846 3.05199 1.80172
head 14.7592 3.95664 -1.8433
rclavicle 4.77083e-015 -8.74653e-015
rhumerus 16.6486 16.8061 -77.467
rradius 115.008
rwrist -41.7076
rhand -15.1344 -26.1965
rfingers 7.12502
rthumb 11.0352 -55.8864
lclavicle 4.77083e-015 -8.74653e-015
lhumerus 20.8802 -39.6712 77.6719
lradius 137.834
lwrist 18.5318
lhand -22.6568 12.7732
lfingers 7.12502
lthumb 3.77457 42.7195
rfemur 7.94554 6.16845 6.40723
rtibia -2.8625e-014
rfoot -9.47809 -22.7186
rtoes -18.3626
lfemur -37.3931 6.95699 -2.95389
ltibia 44.2735
lfoot -10.2789 20.8174
ltoes -0.448938
1854
root 2.57683 14.7914 -0.944274 11.0863 -19.7383 -4.23758
lowerback 1.55836 2.90158 -1.67227
upperback -6.01286 3.72242 -1.10936
thorax -7.17247 1.89235 -0.514794
lowerneck -6.17913 5.75068 18.3194
upperneck 37.7326 3.99848 1.43436
head 14.7836 4.4052 -1.99059
rclavicle -2.03257e-014 -1.35174e-014
rhumerus 15.0258 17.6526 -77.7674
rradius 117.787
rwrist -41.4236
rhand -14.4574 -26.0718
rfingers 7.12502
rthumb 11.6881 -55.7258
lclavicle -2.03257e-014 -1.35174e-014
lhumerus 20.8743 -39.0436 77.2671
lradius 138.275
lwrist 18.4082
lhand -22.6964 12.6983
lfingers 7.12502
lthumb 3.73632 42.6453
rfemur 7.42415 7.76291 5.99913
rtibia 2.54444e-014
rfoot -9.14468 -22.7733
rtoes -18.8889
lfemur -36.5904 7.4307 -2.98522
ltibia 44.3812
lfoot -10.7677 21.6725
ltoes 0.0416234
1855
root 2.59588 14.7921 -0.946145 11.007 -21.0146 -4.24614
lowerback 1.8392 2.48847 -1.95843
upperback -5.95007 3.1418 -1.13697
thorax -7.27826 1.61912 -0.350273
lowerneck -5.84592 6.35221 19.0767
upperneck 37.5444 4.9221 1.05717
head 14.7786 4.83284 -2.13554
rclavicle 3.82412e-014 0
rhumerus 13.5805 18.3893 -78.017
rradius 120.159
rwrist -41.0928
rhand -13.801 -25.9296
rfingers 7.12502
rthumb 12.321 -55.5466
lclavicle 3.82412e-014 0
lhumerus 20.849 -38.3764 76.9022
lradius 138.705
lwrist 18.2948
lhand -22.7572 12.6743
lfingers 7.12502
lthumb 3.6776 42.6223
rfemur 6.96391 9.07001 5.68364
rtibia 1.90833e-014
rfoot -8.87259 -22.826
rtoes -19.2745
lfemur -36.0111 7.72306 -2.97071
ltibia 44.546
lfoot -11.1992 22.4772
ltoes 0.554548
